<svg xmlns="http://www.w3.org/2000/svg" viewBox="0 0 760 980" role="img" aria-labelledby="title desc">
  <title id="title">Kashis Ray portrait</title>
  <desc id="desc">Editorial portrait artwork of actor Kashis Ray.</desc>
  <defs>
    <linearGradient id="bg" x1="0" x2="1" y1="0" y2="1">
      <stop offset="0" stop-color="#c9d8d1"/>
      <stop offset="0.48" stop-color="#f0d9b8"/>
      <stop offset="1" stop-color="#364744"/>
    </linearGradient>
    <linearGradient id="jacket" x1="0" x2="1" y1="0" y2="1">
      <stop offset="0" stop-color="#20292b"/>
      <stop offset="1" stop-color="#0d766f"/>
    </linearGradient>
  </defs>
  <rect width="760" height="980" fill="url(#bg)"/>
  <circle cx="556" cy="170" r="110" fill="#a33b2f" opacity=".3"/>
  <path d="M117 982c28-238 120-357 276-357 154 0 246 119 276 357z" fill="url(#jacket)"/>
  <path d="M246 650c49 70 91 105 127 105 39 0 83-35 133-105-20-33-38-74-41-124H287c-3 51-20 91-41 124z" fill="#b87958"/>
  <path d="M236 330c8-139 68-220 158-220 91 0 148 83 157 220l-15 145c-20 112-76 177-143 177-68 0-125-66-143-177z" fill="#c88b67"/>
  <path d="M231 351c20-160 81-239 183-239 84 0 142 65 155 194-45-72-93-106-145-103-66 4-121 49-193 148z" fill="#2d2522"/>
  <path d="M305 396c30-13 58-13 86 0M430 396c27-13 55-13 83 0" stroke="#352925" stroke-width="15" stroke-linecap="round"/>
  <path d="M375 422c-15 52-21 83-16 93 7 14 31 17 54 7" fill="none" stroke="#9d654c" stroke-width="12" stroke-linecap="round"/>
  <path d="M342 557c42 26 86 27 131 0" fill="none" stroke="#743d36" stroke-width="14" stroke-linecap="round"/>
  <path d="M214 704l125 278H137zM551 704L428 982h202z" fill="#20292b" opacity=".86"/>
  <path d="M333 750h91l44 232H289z" fill="#f8efe2"/>
</svg>
